<svg width="278" height="256" viewBox="0 0 278 256" version="1.1" xmlns="http://www.w3.org/2000/svg" xmlns:xlink="http://www.w3.org/1999/xlink">
<title>illustration</title>
<desc>Created using Figma</desc>
<g id="Canvas" transform="translate(-2310 -5573)">
<g id="illustration">
<g id="Oval 2">
<use xlink:href="#path0_fill" transform="matrix(1 1.22465e-16 -1.22465e-16 1 2310 5573)" fill="#FFFFFF"/>
</g>
<g id="Group 2">
<g id="Star" opacity="0.15642">
<use xlink:href="#path1_stroke" transform="translate(2353 5616)" fill="url(#paint1_radial)"/>
</g>
<g id="Oval 4" opacity="0.15642">
<use xlink:href="#path2_stroke" transform="translate(2372 5635)" fill="#979797"/>
</g>
<g id="Oval 4" opacity="0.15642">
<use xlink:href="#path3_stroke" transform="translate(2383.06 5646.06)" fill="#979797"/>
</g>
<g id="Combined Shape" filter="url(#filter0_i)">
<use xlink:href="#path4_stroke" transform="translate(2372.07 5635)"/>
</g>
<g id="Oval 4">
<mask id="mask0_outline_out">
<rect id="mask0_outline_inv" fill="white" x="-3" y="-3" width="57" height="57" transform="translate(2412.76 5675.76)"/>
<use xlink:href="#path5_fill" fill="black" transform="translate(2412.76 5675.76)"/>
</mask>
<g mask="url(#mask0_outline_out)">
<use xlink:href="#path6_stroke_2x" transform="translate(2412.76 5675.76)" fill="#000000" fill-opacity="0.117216"/>
<use xlink:href="#path6_stroke_2x" transform="translate(2412.76 5675.76)" fill="#707070"/>
</g>
</g>
<g id="Oval 4" opacity="0.4">
<use xlink:href="#path7_stroke" transform="translate(2408 5671)"/>
</g>
<g id="Oval 4">
<use xlink:href="#path8_stroke" transform="translate(2453.97 5675.6)" fill="#EE0000"/>
</g>
</g>
<g id="Group 2">
<g id="Combined Shape" filter="url(#filter1_i)">
<use xlink:href="#path9_stroke" transform="translate(2483.06 5594)" fill="#EE0000"/>
</g>
<g id="Oval 4">
<mask id="mask1_outline_out">
<rect id="mask1_outline_inv" fill="white" x="-3" y="-3" width="46" height="46" transform="translate(2515.12 5626.05)"/>
<use xlink:href="#path10_fill" fill="black" transform="translate(2515.12 5626.05)"/>
</mask>
<g mask="url(#mask1_outline_out)">
<use xlink:href="#path11_stroke_2x" transform="translate(2515.12 5626.05)" fill="#000000" fill-opacity="0.117216"/>
<use xlink:href="#path11_stroke_2x" transform="translate(2515.12 5626.05)" fill="#EE0000"/>
</g>
</g>
<g id="Oval 4" opacity="0.15642">
<use xlink:href="#path12_stroke" transform="translate(2507.58 5618.53)" fill="#979797"/>
</g>
</g>
</g>
</g>
<defs>
<filter id="filter0_i" filterUnits="userSpaceOnUse" x="2371" y="5634" width="134" height="132" color-interpolation-filters="sRGB">
<feFlood flood-opacity="0" result="BackgroundImageFix"/>
<feBlend mode="normal" in="SourceGraphic" in2="BackgroundImageFix" result="shape"/>
<feColorMatrix in="SourceAlpha" type="matrix" values="0 0 0 0 0 0 0 0 0 0 0 0 0 0 0 0 0 0 255 0" result="hardAlpha"/>
<feOffset dx="0" dy="0"/>
<feComposite in2="hardAlpha" operator="arithmetic" k2="-1" k3="1"/>
<feColorMatrix type="matrix" values="0 0 0 0 0 0 0 0 0 0 0 0 0 0 0 0 0 0 0.1 0"/>
<feBlend mode="normal" in2="shape" result="effect1_innerShadow"/>
</filter>
<filter id="filter1_i" filterUnits="userSpaceOnUse" x="2482" y="5593" width="106" height="105" color-interpolation-filters="sRGB">
<feFlood flood-opacity="0" result="BackgroundImageFix"/>
<feBlend mode="normal" in="SourceGraphic" in2="BackgroundImageFix" result="shape"/>
<feColorMatrix in="SourceAlpha" type="matrix" values="0 0 0 0 0 0 0 0 0 0 0 0 0 0 0 0 0 0 255 0" result="hardAlpha"/>
<feOffset dx="0" dy="0"/>
<feComposite in2="hardAlpha" operator="arithmetic" k2="-1" k3="1"/>
<feColorMatrix type="matrix" values="0 0 0 0 0 0 0 0 0 0 0 0 0 0 0 0 0 0 0.1 0"/>
<feBlend mode="normal" in2="shape" result="effect1_innerShadow"/>
</filter>
<radialGradient id="paint1_radial" cx="0.5" cy="0.5" r="0.5" gradientUnits="userSpaceOnUse" gradientTransform="matrix(0 170 -170 0 170 0)">
<stop offset="0" stop-color="#979797"/>
<stop offset="1" stop-color="#979797" stop-opacity="0.444322"/>
</radialGradient>
<path id="path0_fill" fill-rule="evenodd" d="M 128 256C 198.692 256 256 198.692 256 128C 219.728 128 128 128 128 128C 128 128 128 128 196.24 19.6876C 176.487 7.21681 153.086 0 128 0C 57.3075 0 0 57.3075 0 128C 0 198.692 57.3075 256 128 256Z"/>
<path id="path1_stroke" d="M 85 133.9L 85.3646 133.558L 85 133.17L 84.6354 133.558L 85 133.9ZM 55.9283 164.874L 55.4291 164.902L 55.4939 166.067L 56.2929 165.216L 55.9283 164.874ZM 53.5675 122.46L 54.0667 122.432L 54.0371 121.9L 53.5081 121.963L 53.5675 122.46ZM 11.3878 127.5L 10.9875 127.2L 10.288 128.135L 11.4472 127.996L 11.3878 127.5ZM 36.8426 93.4915L 37.2429 93.7911L 37.5621 93.3646L 37.1162 93.073L 36.8426 93.4915ZM 1.29134 70.2399L 1.17729 69.7531L 0.0406809 70.0194L 1.01766 70.6584L 1.29134 70.2399ZM 42.6511 60.5498L 42.7651 61.0366L 43.2838 60.9151L 43.1297 60.4052L 42.6511 60.5498ZM 30.3631 19.8862L 30.5886 19.44L 29.5467 18.9134L 29.8844 20.0309L 30.3631 19.8862ZM 68.2751 39.0487L 68.0496 39.4949L 68.525 39.7353L 68.7347 39.2456L 68.2751 39.0487ZM 85 0L 85.4596 -0.196858L 85 -1.26995L 84.5404 -0.196858L 85 0ZM 101.725 39.0487L 101.265 39.2456L 101.475 39.7353L 101.95 39.4949L 101.725 39.0487ZM 139.637 19.8862L 140.116 20.0309L 140.453 18.9134L 139.411 19.44L 139.637 19.8862ZM 127.349 60.5498L 126.87 60.4052L 126.716 60.9151L 127.235 61.0366L 127.349 60.5498ZM 168.709 70.2399L 168.982 70.6584L 169.959 70.0194L 168.823 69.7531L 168.709 70.2399ZM 133.157 93.4915L 132.884 93.073L 132.438 93.3646L 132.757 93.7911L 133.157 93.4915ZM 158.612 127.5L 158.553 127.996L 159.712 128.135L 159.012 127.2L 158.612 127.5ZM 116.433 122.46L 116.492 121.963L 115.963 121.9L 115.933 122.432L 116.433 122.46ZM 114.072 164.874L 113.707 165.216L 114.506 166.067L 114.571 164.902L 114.072 164.874ZM 84.6354 133.558L 55.5637 164.532L 56.2929 165.216L 85.3646 134.243L 84.6354 133.558ZM 56.4275 164.846L 54.0667 122.432L 53.0682 122.488L 55.4291 164.902L 56.4275 164.846ZM 53.5081 121.963L 11.3285 127.004L 11.4472 127.996L 53.6268 122.956L 53.5081 121.963ZM 11.7881 127.8L 37.2429 93.7911L 36.4423 93.1918L 10.9875 127.2L 11.7881 127.8ZM 37.1162 93.073L 1.56502 69.8215L 1.01766 70.6584L 36.5689 93.9099L 37.1162 93.073ZM 1.4054 70.7267L 42.7651 61.0366L 42.537 60.063L 1.17729 69.7531L 1.4054 70.7267ZM 43.1297 60.4052L 30.8417 19.7416L 29.8844 20.0309L 42.1724 60.6945L 43.1297 60.4052ZM 30.1375 20.3325L 68.0496 39.4949L 68.5006 38.6025L 30.5886 19.44L 30.1375 20.3325ZM 68.7347 39.2456L 85.4596 0.196858L 84.5404 -0.196858L 67.8155 38.8519L 68.7347 39.2456ZM 84.5404 0.196858L 101.265 39.2456L 102.185 38.8519L 85.4596 -0.196858L 84.5404 0.196858ZM 101.95 39.4949L 139.863 20.3325L 139.411 19.44L 101.499 38.6025L 101.95 39.4949ZM 139.158 19.7416L 126.87 60.4052L 127.828 60.6945L 140.116 20.0309L 139.158 19.7416ZM 127.235 61.0366L 168.595 70.7267L 168.823 69.7531L 127.463 60.063L 127.235 61.0366ZM 168.435 69.8215L 132.884 93.073L 133.431 93.9099L 168.982 70.6584L 168.435 69.8215ZM 132.757 93.7911L 158.212 127.8L 159.012 127.2L 133.558 93.1918L 132.757 93.7911ZM 158.671 127.004L 116.492 121.963L 116.373 122.956L 158.553 127.996L 158.671 127.004ZM 115.933 122.432L 113.572 164.846L 114.571 164.902L 116.932 122.488L 115.933 122.432ZM 114.436 164.532L 85.3646 133.558L 84.6354 134.243L 113.707 165.216L 114.436 164.532Z"/>
<path id="path2_stroke" d="M 66 132.5C 102.727 132.5 132.5 102.727 132.5 66L 131.5 66C 131.5 102.175 102.175 131.5 66 131.5L 66 132.5ZM 132.5 66C 132.5 29.2731 102.727 -0.5 66 -0.5L 66 0.5C 102.175 0.5 131.5 29.8253 131.5 66L 132.5 66ZM 66 -0.5C 29.2731 -0.5 -0.5 29.2731 -0.5 66L 0.5 66C 0.5 29.8253 29.8253 0.5 66 0.5L 66 -0.5ZM -0.5 66C -0.5 102.727 29.2731 132.5 66 132.5L 66 131.5C 29.8253 131.5 0.5 102.175 0.5 66L -0.5 66Z"/>
<path id="path3_stroke" d="M 54.9421 110.384C 85.5619 110.384 110.384 85.5619 110.384 54.9421L 109.384 54.9421C 109.384 85.0096 85.0096 109.384 54.9421 109.384L 54.9421 110.384ZM 110.384 54.9421C 110.384 24.3223 85.5619 -0.5 54.9421 -0.5L 54.9421 0.5C 85.0096 0.5 109.384 24.8745 109.384 54.9421L 110.384 54.9421ZM 54.9421 -0.5C 24.3223 -0.5 -0.5 24.3223 -0.5 54.9421L 0.5 54.9421C 0.5 24.8745 24.8745 0.5 54.9421 0.5L 54.9421 -0.5ZM -0.5 54.9421C -0.5 85.5619 24.3223 110.384 54.9421 110.384L 54.9421 109.384C 24.8745 109.384 0.5 85.0096 0.5 54.9421L -0.5 54.9421Z"/>
<path id="path4_stroke" d="M 51.3857 130.393L 51.2761 130.881L 51.5548 130.944L 51.7503 130.735L 51.3857 130.393ZM 60.5042 120.678L 60.5529 120.181L 60.308 120.157L 60.1396 120.336L 60.5042 120.678ZM 35.6753 124.674L 35.1761 124.702L 35.1919 124.987L 35.4458 125.118L 35.6753 124.674ZM 34.9348 111.373L 35.434 111.345L 35.4204 111.099L 35.2172 110.96L 34.9348 111.373ZM 26.6318 104.399L 26.9894 104.05L 26.8172 103.874L 26.5725 103.903L 26.6318 104.399ZM 13.4094 105.979L 13.0118 106.283L 13.185 106.51L 13.4688 106.476L 13.4094 105.979ZM 5.0354 91.5044L 4.63511 91.2048L 4.46365 91.4339L 4.5743 91.6977L 5.0354 91.5044ZM 13.0139 80.8447L 13.4142 81.1443L 13.5618 80.9471L 13.4954 80.7099L 13.0139 80.8447ZM 11.1399 70.1553L 11.6385 70.118L 11.6201 69.8719L 11.4136 69.7368L 11.1399 70.1553ZM 0 62.8696L -0.499456 62.8463L -0.51278 63.1317L -0.273674 63.2881L 0 62.8696ZM 2.88696 46.3975L 2.7729 45.9106L 2.49434 45.9759L 2.40947 46.2491L 2.88696 46.3975ZM 15.8518 43.3599L 15.9659 43.8467L 16.2057 43.7905L 16.3073 43.5661L 15.8518 43.3599ZM 21.2861 33.9648L 21.6921 34.2567L 21.8361 34.0564L 21.7648 33.8202L 21.2861 33.9648ZM 17.4365 21.2261L 17.0693 20.8868L 16.8752 21.0969L 16.9579 21.3707L 17.4365 21.2261ZM 30.2456 10.4673L 30.4712 10.0211L 30.2156 9.8919L 29.9749 10.0469L 30.2456 10.4673ZM 42.1208 16.4697L 41.8953 16.916L 42.1155 17.0273L 42.3378 16.9202L 42.1208 16.4697ZM 52.3264 12.7544L 52.4498 13.2389L 52.6889 13.178L 52.786 12.9513L 52.3264 12.7544ZM 57.5645 0.524902L 57.5018 0.0288496L 57.2176 0.0647671L 57.1048 0.328043L 57.5645 0.524902ZM 74.2896 0.524902L 74.7492 0.328043L 74.6364 0.0647671L 74.3523 0.0288496L 74.2896 0.524902ZM 79.5276 12.7544L 79.068 12.9513L 79.1651 13.178L 79.4042 13.2389L 79.5276 12.7544ZM 89.7334 16.4697L 89.5165 16.9202L 89.7388 17.0273L 89.959 16.916L 89.7334 16.4697ZM 101.608 10.4673L 101.879 10.0469L 101.638 9.8919L 101.383 10.0211L 101.608 10.4673ZM 114.417 21.2261L 114.896 21.3707L 114.979 21.0969L 114.785 20.8868L 114.417 21.2261ZM 110.568 33.9648L 110.089 33.8202L 110.018 34.0564L 110.162 34.2567L 110.568 33.9648ZM 116.002 43.3599L 115.547 43.5661L 115.649 43.7905L 115.888 43.8467L 116.002 43.3599ZM 128.967 46.3975L 129.445 46.2491L 129.36 45.9759L 129.081 45.9106L 128.967 46.3975ZM 131.854 62.8696L 132.128 63.2881L 132.367 63.1317L 132.353 62.8463L 131.854 62.8696ZM 120.714 70.1553L 120.441 69.7368L 120.234 69.8719L 120.216 70.118L 120.714 70.1553ZM 118.84 80.8452L 118.359 80.7104L 118.292 80.9476L 118.44 81.1448L 118.84 80.8452ZM 126.819 91.5044L 127.28 91.6977L 127.39 91.4339L 127.219 91.2048L 126.819 91.5044ZM 118.445 105.979L 118.385 106.476L 118.669 106.51L 118.842 106.283L 118.445 105.979ZM 105.222 104.399L 105.282 103.903L 105.037 103.874L 104.865 104.05L 105.222 104.399ZM 96.9192 111.373L 96.6368 110.96L 96.4336 111.099L 96.42 111.345L 96.9192 111.373ZM 96.1787 124.674L 96.4082 125.118L 96.6621 124.987L 96.6779 124.702L 96.1787 124.674ZM 80.4683 130.393L 80.1037 130.735L 80.2992 130.944L 80.5779 130.881L 80.4683 130.393ZM 71.3499 120.678L 71.7144 120.336L 71.546 120.157L 71.3011 120.181L 71.3499 120.678ZM 51.7503 130.735L 60.8687 121.02L 60.1396 120.336L 51.0212 130.051L 51.7503 130.735ZM 35.4458 125.118C 40.3837 127.668 45.7125 129.629 51.2761 130.881L 51.4954 129.905C 45.9955 128.67 40.7867 126.753 35.9048 124.23L 35.4458 125.118ZM 34.4356 111.401L 35.1761 124.702L 36.1745 124.646L 35.434 111.345L 34.4356 111.401ZM 26.2743 104.749C 28.8196 107.352 31.6382 109.722 34.6524 111.786L 35.2172 110.96C 32.2431 108.926 29.4997 106.619 26.9894 104.05L 26.2743 104.749ZM 13.4688 106.476L 26.6912 104.896L 26.5725 103.903L 13.3501 105.483L 13.4688 106.476ZM 4.5743 91.6977C 6.76674 96.9235 9.62357 101.837 13.0118 106.283L 13.807 105.676C 10.455 101.281 7.66197 96.4779 5.4965 91.311L 4.5743 91.6977ZM 12.6136 80.5451L 4.63511 91.2048L 5.43569 91.804L 13.4142 81.1443L 12.6136 80.5451ZM 10.6413 70.1926C 10.9187 73.8936 11.5638 77.5176 12.5324 80.9795L 13.4954 80.7099C 12.5387 77.2949 11.9109 73.7685 11.6385 70.118L 10.6413 70.1926ZM -0.273674 63.2881L 10.8662 70.5737L 11.4136 69.7368L 0.273674 62.4512L -0.273674 63.2881ZM 2.40947 46.2491C 0.773307 51.5196 -0.230251 57.1032 -0.499456 62.8463L 0.499456 62.8929C 0.763455 57.2152 1.74476 51.7568 3.36446 46.5458L 2.40947 46.2491ZM 15.7377 42.873L 2.7729 45.9106L 3.00102 46.8843L 15.9659 43.8467L 15.7377 42.873ZM 20.8801 33.673C 18.7607 36.6223 16.9112 39.8102 15.3963 43.1536L 16.3073 43.5661C 17.8002 40.2679 19.6002 37.1658 21.6921 34.2567L 20.8801 33.673ZM 16.9579 21.3707L 20.8075 34.1095L 21.7648 33.8202L 17.9151 21.0814L 16.9579 21.3707ZM 29.9749 10.0469C 25.2331 13.1011 20.8811 16.7624 17.0693 20.8868L 17.8038 21.5654C 21.5716 17.4857 25.8269 13.9057 30.5163 10.8877L 29.9749 10.0469ZM 42.3464 16.0235L 30.4712 10.0211L 30.0201 10.9135L 41.8953 16.916L 42.3464 16.0235ZM 52.203 12.2699C 48.6258 13.1816 45.1642 14.4501 41.9039 16.0192L 42.3378 16.9202C 45.5536 15.3712 48.9216 14.1368 52.4498 13.2389L 52.203 12.2699ZM 57.1048 0.328043L 51.8668 12.5575L 52.786 12.9513L 58.0241 0.721761L 57.1048 0.328043ZM 65.927 -0.5C 63.0783 -0.499744 60.2559 -0.319042 57.5018 0.0288496L 57.6272 1.02096C 60.3506 0.676464 63.1102 0.499744 65.927 0.5L 65.927 -0.5ZM 74.3523 0.0288496C 71.5981 -0.319042 68.7757 -0.499744 65.927 -0.5L 65.927 0.5C 68.7438 0.499744 71.5034 0.676464 74.2268 1.02096L 74.3523 0.0288496ZM 79.9872 12.5575L 74.7492 0.328043L 73.8299 0.721761L 79.068 12.9513L 79.9872 12.5575ZM 89.9503 16.0192C 86.6898 14.4501 83.2285 13.1816 79.651 12.2699L 79.4042 13.2389C 82.9326 14.1368 86.3004 15.3712 89.5165 16.9202L 89.9503 16.0192ZM 101.383 10.0211L 89.5078 16.0235L 89.959 16.916L 101.834 10.9135L 101.383 10.0211ZM 114.785 20.8868C 110.973 16.7624 106.621 13.1011 101.879 10.0469L 101.338 10.8877C 106.027 13.9057 110.282 17.4857 114.05 21.5654L 114.785 20.8868ZM 111.047 34.1095L 114.896 21.3707L 113.939 21.0814L 110.089 33.8202L 111.047 34.1095ZM 116.458 43.1536C 114.943 39.8097 113.094 36.6223 110.974 33.673L 110.162 34.2567C 112.254 37.1658 114.054 40.2675 115.547 43.5661L 116.458 43.1536ZM 129.081 45.9106L 116.117 42.873L 115.888 43.8467L 128.853 46.8843L 129.081 45.9106ZM 132.353 62.8463C 132.084 57.1032 131.081 51.5196 129.445 46.2491L 128.49 46.5458C 130.109 51.7568 131.091 57.2152 131.355 62.8929L 132.353 62.8463ZM 120.988 70.5737L 132.128 63.2881L 131.58 62.4512L 120.441 69.7368L 120.988 70.5737ZM 119.322 80.98C 120.29 77.5176 120.936 73.8936 121.213 70.1926L 120.216 70.118C 119.943 73.7685 119.316 77.2949 118.359 80.7104L 119.322 80.98ZM 127.219 91.2048L 119.24 80.5456L 118.44 81.1448L 126.418 91.804L 127.219 91.2048ZM 118.842 106.283C 122.23 101.837 125.087 96.9235 127.28 91.6977L 126.358 91.311C 124.192 96.4779 121.399 101.281 118.047 105.676L 118.842 106.283ZM 105.163 104.896L 118.385 106.476L 118.504 105.483L 105.282 103.903L 105.163 104.896ZM 97.2016 111.786C 100.216 109.722 103.035 107.352 105.58 104.749L 104.865 104.05C 102.355 106.619 99.6111 108.926 96.6368 110.96L 97.2016 111.786ZM 96.6779 124.702L 97.4184 111.401L 96.42 111.345L 95.6795 124.646L 96.6779 124.702ZM 80.5779 130.881C 86.1415 129.629 91.4703 127.668 96.4082 125.118L 95.9492 124.23C 91.0673 126.753 85.8585 128.67 80.3586 129.905L 80.5779 130.881ZM 70.9853 121.02L 80.1037 130.735L 80.8328 130.051L 71.7144 120.336L 70.9853 121.02ZM 65.9272 121.442C 67.7694 121.442 69.6026 121.352 71.3986 121.176L 71.3011 120.181C 69.5292 120.354 67.7447 120.443 65.9272 120.442L 65.9272 121.442ZM 60.4554 121.176C 62.2516 121.352 64.0848 121.442 65.9272 121.442L 65.9272 120.442C 64.1095 120.443 62.3251 120.354 60.5529 120.181L 60.4554 121.176Z"/>
<path id="path5_fill" fill-rule="evenodd" d="M 25.2355 50.471C 39.1727 50.471 50.471 39.1727 50.471 25.2355C 50.471 11.2983 39.1727 0 25.2355 0C 11.2983 0 0 11.2983 0 25.2355C 0 39.1727 11.2983 50.471 25.2355 50.471Z"/>
<path id="path6_stroke_2x" d="M 25.2355 53.471C 40.8296 53.471 53.471 40.8296 53.471 25.2355L 47.471 25.2355C 47.471 37.5159 37.5159 47.471 25.2355 47.471L 25.2355 53.471ZM 53.471 25.2355C 53.471 9.64147 40.8296 -3 25.2355 -3L 25.2355 3C 37.5159 3 47.471 12.9552 47.471 25.2355L 53.471 25.2355ZM 25.2355 -3C 9.64147 -3 -3 9.64147 -3 25.2355L 3 25.2355C 3 12.9552 12.9552 3 25.2355 3L 25.2355 -3ZM -3 25.2355C -3 40.8296 9.64147 53.471 25.2355 53.471L 25.2355 47.471C 12.9552 47.471 3 37.5159 3 25.2355L -3 25.2355Z"/>
<path id="path7_stroke" d="M 46.1583 4.12716C 41.4924 1.21216 35.9111 -0.494499 30 -0.5L 30 0.5C 35.7631 0.494499 41.0773 2.12192 45.6278 4.97484L 46.1583 4.12716ZM 30 -0.5C 13.1553 -0.5 -0.5 13.1553 -0.5 30L 0.5 30C 0.5 13.7076 13.7076 0.5 30 0.5L 30 -0.5ZM -0.5 30C -0.5 46.8447 13.1553 60.5 30 60.5L 30 59.5C 13.7076 59.5 0.5 46.2924 0.5 30L -0.5 30ZM 30 60.5C 46.8447 60.5 60.5 46.8447 60.5 30L 59.5 30C 59.5 46.2924 46.2924 59.5 30 59.5L 30 60.5Z"/>
<path id="path8_stroke" d="M 14.5279 25.3993C 14.5279 14.5225 8.83394 4.97583 0.266568 -0.423014L -0.266568 0.423014C 8.02245 5.64646 13.5279 14.8802 13.5279 25.3993L 14.5279 25.3993Z"/>
<path id="path9_stroke" d="M 40.4858 102.522L 40.3764 103.01L 40.6547 103.073L 40.8501 102.865L 40.4858 102.522ZM 47.6699 94.8843L 47.7185 94.3866L 47.474 94.3628L 47.3057 94.5417L 47.6699 94.8843ZM 28.1079 98.0259L 27.6087 98.0537L 27.6246 98.3392L 27.8788 98.4703L 28.1079 98.0259ZM 27.5247 87.5679L 28.0239 87.54L 28.0102 87.294L 27.8067 87.155L 27.5247 87.5679ZM 20.9824 82.085L 21.3396 81.7351L 21.1675 81.5593L 20.9232 81.5885L 20.9824 82.085ZM 10.5649 83.3271L 10.1676 83.6307L 10.3408 83.8574L 10.6241 83.8236L 10.5649 83.3271ZM 3.96753 71.9463L 3.56753 71.6463L 3.3955 71.8757L 3.50657 72.14L 3.96753 71.9463ZM 10.2534 63.5654L 10.6534 63.8654L 10.8015 63.668L 10.7348 63.4304L 10.2534 63.5654ZM 8.77661 55.1602L 9.27521 55.1228L 9.25676 54.8765L 9.0499 54.7415L 8.77661 55.1602ZM 0 49.4316L -0.499453 49.4083L -0.512831 49.694L -0.273289 49.8503L 0 49.4316ZM 2.27466 36.4805L 2.16082 35.9936L 1.88228 36.0587L 1.79725 36.3319L 2.27466 36.4805ZM 12.489 34.0923L 12.6028 34.5792L 12.8426 34.5231L 12.9443 34.2989L 12.489 34.0923ZM 16.7708 26.7051L 17.1764 26.9973L 17.3209 26.7968L 17.2493 26.5602L 16.7708 26.7051ZM 13.7378 16.6895L 13.3709 16.3498L 13.1762 16.5601L 13.2593 16.8344L 13.7378 16.6895ZM 23.8298 8.22998L 24.055 7.78356L 23.7999 7.65489L 23.5596 7.80933L 23.8298 8.22998ZM 33.1858 12.9492L 32.9606 13.3956L 33.1804 13.5065L 33.4024 13.3999L 33.1858 12.9492ZM 41.2271 10.0278L 41.3502 10.5124L 41.5892 10.4517L 41.6865 10.225L 41.2271 10.0278ZM 45.354 0.412598L 45.2914 -0.0834632L 45.0074 -0.0476085L 44.8945 0.21539L 45.354 0.412598ZM 58.5312 0.412598L 58.9907 0.215399L 58.8778 -0.0476078L 58.5939 -0.0834632L 58.5312 0.412598ZM 62.6582 10.0283L 62.1987 10.2255L 62.296 10.4522L 62.535 10.5129L 62.6582 10.0283ZM 70.6992 12.9492L 70.4826 13.3999L 70.7046 13.5065L 70.9244 13.3956L 70.6992 12.9492ZM 80.0554 8.22998L 80.3257 7.80933L 80.0853 7.65489L 79.8302 7.78355L 80.0554 8.22998ZM 90.1472 16.689L 90.6258 16.8339L 90.7088 16.5596L 90.5141 16.3493L 90.1472 16.689ZM 87.1143 26.7051L 86.6357 26.5602L 86.5641 26.7968L 86.7086 26.9973L 87.1143 26.7051ZM 91.396 34.0923L 90.9407 34.2989L 91.0424 34.5231L 91.2822 34.5792L 91.396 34.0923ZM 101.611 36.4805L 102.088 36.3319L 102.003 36.0587L 101.724 35.9936L 101.611 36.4805ZM 103.885 49.4316L 104.159 49.8503L 104.398 49.694L 104.385 49.4083L 103.885 49.4316ZM 95.1084 55.1602L 94.8351 54.7414L 94.6283 54.8765L 94.6098 55.1228L 95.1084 55.1602ZM 93.6316 63.5649L 93.1502 63.4299L 93.0835 63.6675L 93.2316 63.8649L 93.6316 63.5649ZM 99.9177 71.9463L 100.379 72.14L 100.49 71.8757L 100.318 71.6463L 99.9177 71.9463ZM 93.3201 83.3271L 93.2609 83.8236L 93.5442 83.8574L 93.7174 83.6307L 93.3201 83.3271ZM 82.9023 82.085L 82.9615 81.5885L 82.7173 81.5593L 82.5451 81.7351L 82.9023 82.085ZM 76.3606 87.5679L 76.0786 87.155L 75.8751 87.294L 75.8614 87.54L 76.3606 87.5679ZM 75.7773 98.0259L 76.0065 98.4703L 76.2606 98.3392L 76.2766 98.0537L 75.7773 98.0259ZM 63.3994 102.522L 63.0352 102.865L 63.2306 103.073L 63.5089 103.01L 63.3994 102.522ZM 56.2151 94.8838L 56.5793 94.5412L 56.411 94.3623L 56.1665 94.3862L 56.2151 94.8838ZM 40.8501 102.865L 48.0341 95.2268L 47.3057 94.5417L 40.1216 102.18L 40.8501 102.865ZM 27.8788 98.4703C 31.7752 100.478 35.9862 102.024 40.3764 103.01L 40.5953 102.035C 36.2686 101.065 32.1774 99.5627 28.3371 97.5815L 27.8788 98.4703ZM 27.0254 87.5957L 27.6087 98.0537L 28.6071 97.998L 28.0239 87.54L 27.0254 87.5957ZM 20.6252 82.4348C 22.6345 84.4856 24.8635 86.355 27.2427 87.9808L 27.8067 87.155C 25.4675 85.5581 23.3138 83.7517 21.3396 81.7351L 20.6252 82.4348ZM 10.6241 83.8236L 21.0416 82.5814L 20.9232 81.5885L 10.5057 82.8307L 10.6241 83.8236ZM 3.50657 72.14C 5.23689 76.2549 7.49418 80.1297 10.1676 83.6307L 10.9623 83.0236C 8.32515 79.5734 6.13176 75.8086 4.42848 71.7526L 3.50657 72.14ZM 9.85342 63.2654L 3.56753 71.6463L 4.36752 72.2463L 10.6534 63.8654L 9.85342 63.2654ZM 8.27801 55.1975C 8.49711 58.113 9.00748 60.9729 9.772 63.7005L 10.7348 63.4304C 9.98226 60.7497 9.48922 57.9876 9.27521 55.1228L 8.27801 55.1975ZM -0.273289 49.8503L 8.50332 55.5789L 9.0499 54.7415L 0.273289 49.0129L -0.273289 49.8503ZM 1.79725 36.3319C 0.506272 40.4822 -0.286635 44.8858 -0.499453 49.4083L 0.499453 49.455C 0.707045 44.998 1.47761 40.7199 2.75206 36.6291L 1.79725 36.3319ZM 12.3752 33.6054L 2.16082 35.9936L 2.38849 36.9673L 12.6028 34.5792L 12.3752 33.6054ZM 16.3651 26.4128C 14.6921 28.7362 13.2295 31.2517 12.0337 33.8857L 12.9443 34.2989C 14.1182 31.7102 15.531 29.2804 17.1764 26.9973L 16.3651 26.4128ZM 13.2593 16.8344L 16.2922 26.85L 17.2493 26.5602L 14.2163 16.5445L 13.2593 16.8344ZM 23.5596 7.80933C 19.818 10.2146 16.3787 13.1019 13.3709 16.3498L 14.1047 17.0291C 17.0685 13.8259 20.411 11.0198 24.1001 8.65063L 23.5596 7.80933ZM 33.411 12.5028L 24.055 7.78356L 23.6047 8.6764L 32.9606 13.3956L 33.411 12.5028ZM 41.1039 9.54324C 38.2801 10.2615 35.5429 11.2625 32.9692 12.4986L 33.4024 13.3999C 35.9317 12.1838 38.5754 11.217 41.3502 10.5124L 41.1039 9.54324ZM 44.8945 0.21539L 40.7676 9.83062L 41.6865 10.225L 45.8135 0.609805L 44.8945 0.21539ZM 51.9426 -0.5C 49.6948 -0.499747 47.4645 -0.357626 45.2914 -0.0834632L 45.4166 0.908659C 47.559 0.6379 49.7266 0.499747 51.9426 0.5L 51.9426 -0.5ZM 58.5939 -0.0834632C 56.4208 -0.357626 54.1905 -0.499747 51.9426 -0.5L 51.9426 0.5C 54.1587 0.499747 56.3263 0.6379 58.4686 0.908659L 58.5939 -0.0834632ZM 63.1177 9.83112L 58.9907 0.215399L 58.0718 0.609797L 62.1987 10.2255L 63.1177 9.83112ZM 70.9158 12.4986C 68.3423 11.2625 65.6051 10.262 62.7814 9.54373L 62.535 10.5129C 65.3099 11.2175 67.9536 12.1838 70.4826 13.3999L 70.9158 12.4986ZM 79.8302 7.78355L 70.474 12.5028L 70.9244 13.3956L 80.2806 8.67641L 79.8302 7.78355ZM 90.5141 16.3493C 87.5063 13.1014 84.0672 10.2146 80.3257 7.80933L 79.7851 8.65063C 83.4743 11.0198 86.8165 13.8254 89.7803 17.0286L 90.5141 16.3493ZM 87.5928 26.85L 90.6258 16.8339L 89.6687 16.5441L 86.6357 26.5602L 87.5928 26.85ZM 91.8513 33.8857C 90.6555 31.2517 89.1929 28.7362 87.52 26.4128L 86.7086 26.9973C 88.354 29.2804 89.7668 31.7102 90.9407 34.2989L 91.8513 33.8857ZM 101.724 35.9936L 91.5098 33.6054L 91.2822 34.5792L 101.497 36.9673L 101.724 35.9936ZM 104.385 49.4083C 104.172 44.8858 103.379 40.4822 102.088 36.3319L 101.133 36.6291C 102.407 40.7199 103.178 44.998 103.386 49.455L 104.385 49.4083ZM 95.3817 55.5789L 104.159 49.8503L 103.612 49.0129L 94.8351 54.7414L 95.3817 55.5789ZM 94.113 63.7C 94.8775 60.9729 95.3879 58.113 95.607 55.1975L 94.6098 55.1228C 94.3958 57.9876 93.9027 60.7497 93.1502 63.4299L 94.113 63.7ZM 100.318 71.6463L 94.0316 63.2649L 93.2316 63.8649L 99.5177 72.2463L 100.318 71.6463ZM 93.7174 83.6307C 96.3908 80.1297 98.6484 76.2549 100.379 72.14L 99.4568 71.7526C 97.7535 75.8086 95.5599 79.5734 92.9228 83.0236L 93.7174 83.6307ZM 82.8431 82.5814L 93.2609 83.8236L 93.3793 82.8307L 82.9615 81.5885L 82.8431 82.5814ZM 76.6426 87.9808C 79.0218 86.355 81.2503 84.4855 83.2596 82.4348L 82.5451 81.7351C 80.571 83.7518 78.4177 85.5581 76.0786 87.155L 76.6426 87.9808ZM 76.2766 98.0537L 76.8598 87.5957L 75.8614 87.54L 75.2781 97.998L 76.2766 98.0537ZM 63.5089 103.01C 67.899 102.024 72.1101 100.478 76.0065 98.4703L 75.5482 97.5815C 71.7078 99.5627 67.6166 101.065 63.2899 102.035L 63.5089 103.01ZM 55.8509 95.2263L 63.0352 102.865L 63.7636 102.18L 56.5793 94.5412L 55.8509 95.2263ZM 51.9424 95.5918C 53.3967 95.5916 54.8463 95.5196 56.2637 95.3814L 56.1665 94.3862C 54.7729 94.5223 53.3719 94.5919 51.9424 94.5918L 51.9424 95.5918ZM 47.6213 95.3819C 49.0388 95.5201 50.4884 95.5916 51.9424 95.5918L 51.9424 94.5918C 50.5131 94.5919 49.1121 94.5228 47.7185 94.3866L 47.6213 95.3819Z"/>
<path id="path10_fill" fill-rule="evenodd" d="M 19.8825 39.6833C 30.8633 39.6833 39.7651 30.7999 39.7651 19.8417C 39.7651 8.88342 30.8633 0 19.8825 0C 8.90171 0 0 8.88342 0 19.8417C 0 30.7999 8.90171 39.6833 19.8825 39.6833Z"/>
<path id="path11_stroke_2x" d="M 19.8825 42.6833C 32.5144 42.6833 42.7651 32.4626 42.7651 19.8417L 36.7651 19.8417C 36.7651 29.1372 29.2123 36.6833 19.8825 36.6833L 19.8825 42.6833ZM 42.7651 19.8417C 42.7651 7.22075 32.5144 -3 19.8825 -3L 19.8825 3C 29.2123 3 36.7651 10.5461 36.7651 19.8417L 42.7651 19.8417ZM 19.8825 -3C 7.25068 -3 -3 7.22075 -3 19.8417L 3 19.8417C 3 10.5461 10.5527 3 19.8825 3L 19.8825 -3ZM -3 19.8417C -3 32.4626 7.25068 42.6833 19.8825 42.6833L 19.8825 36.6833C 10.5527 36.6833 3 29.1372 3 19.8417L -3 19.8417Z"/>
<path id="path12_stroke" d="M 27.4238 55.2348C 42.8447 55.2348 55.3475 42.7591 55.3475 27.3674L 54.3475 27.3674C 54.3475 42.2049 42.2943 54.2348 27.4238 54.2348L 27.4238 55.2348ZM 55.3475 27.3674C 55.3475 11.9757 42.8447 -0.5 27.4238 -0.5L 27.4238 0.5C 42.2943 0.5 54.3475 12.5299 54.3475 27.3674L 55.3475 27.3674ZM 27.4238 -0.5C 12.0029 -0.5 -0.5 11.9757 -0.5 27.3674L 0.5 27.3674C 0.5 12.5299 12.5532 0.5 27.4238 0.5L 27.4238 -0.5ZM -0.5 27.3674C -0.5 42.7591 12.0029 55.2348 27.4238 55.2348L 27.4238 54.2348C 12.5532 54.2348 0.5 42.2049 0.5 27.3674L -0.5 27.3674Z"/>
</defs>
</svg>
