<svg width="278" height="256" viewBox="0 0 278 256" version="1.1" xmlns="http://www.w3.org/2000/svg" xmlns:xlink="http://www.w3.org/1999/xlink">
<title>illustration</title>
<desc>Created using Figma</desc>
<g id="Canvas" transform="translate(-1849 -3919)">
<g id="illustration">
<g id="Oval 2">
<use xlink:href="#path0_fill" transform="matrix(1 1.22465e-16 -1.22465e-16 1 1849 3919)" fill="#F5F5F5"/>
</g>
<g id="Group 2">
<g id="Star" opacity="0.15642">
<use xlink:href="#path1_stroke" transform="translate(1892 3962)" fill="url(#paint1_radial)"/>
</g>
<g id="Oval 4" opacity="0.15642">
<use xlink:href="#path2_stroke" transform="translate(1911 3981)" fill="#979797"/>
</g>
<g id="Oval 4" opacity="0.15642">
<use xlink:href="#path3_stroke" transform="translate(1922.06 3992.06)" fill="#979797"/>
</g>
<g id="Combined Shape" filter="url(#filter0_i)">
<use xlink:href="#path4_stroke" transform="translate(1911.07 3981)"/>
</g>
<g id="Oval 4">
<mask id="mask0_outline_out">
<rect id="mask0_outline_inv" fill="white" x="-3" y="-3" width="57" height="57" transform="translate(1951.76 4021.76)"/>
<use xlink:href="#path5_fill" fill="black" transform="translate(1951.76 4021.76)"/>
</mask>
<g mask="url(#mask0_outline_out)">
<use xlink:href="#path6_stroke_2x" transform="translate(1951.76 4021.76)" fill="#000000" fill-opacity="0.117216"/>
<use xlink:href="#path6_stroke_2x" transform="translate(1951.76 4021.76)" fill="#707070"/>
</g>
</g>
<g id="Oval 4" opacity="0.4">
<use xlink:href="#path7_stroke" transform="translate(1947 4017)"/>
</g>
<g id="Oval 4">
<use xlink:href="#path8_stroke" transform="translate(1992.97 4021.6)" fill="#EE0000"/>
</g>
</g>
<g id="Group 2">
<g id="Combined Shape" filter="url(#filter1_i)">
<use xlink:href="#path9_stroke" transform="translate(2022.06 3940)" fill="#EE0000"/>
</g>
<g id="Oval 4">
<mask id="mask1_outline_out">
<rect id="mask1_outline_inv" fill="white" x="-3" y="-3" width="46" height="46" transform="translate(2054.12 3972.05)"/>
<use xlink:href="#path10_fill" fill="black" transform="translate(2054.12 3972.05)"/>
</mask>
<g mask="url(#mask1_outline_out)">
<use xlink:href="#path11_stroke_2x" transform="translate(2054.12 3972.05)" fill="#000000" fill-opacity="0.117216"/>
<use xlink:href="#path11_stroke_2x" transform="translate(2054.12 3972.05)" fill="#EE0000"/>
</g>
</g>
<g id="Oval 4" opacity="0.15642">
<use xlink:href="#path12_stroke" transform="translate(2046.58 3964.53)" fill="#979797"/>
</g>
</g>
</g>
</g>
<defs>
<filter id="filter0_i" filterUnits="userSpaceOnUse" x="1910" y="3980" width="134" height="132" color-interpolation-filters="sRGB">
<feFlood flood-opacity="0" result="BackgroundImageFix"/>
<feBlend mode="normal" in="SourceGraphic" in2="BackgroundImageFix" result="shape"/>
<feColorMatrix in="SourceAlpha" type="matrix" values="0 0 0 0 0 0 0 0 0 0 0 0 0 0 0 0 0 0 255 0" result="hardAlpha"/>
<feOffset dx="0" dy="0"/>
<feComposite in2="hardAlpha" operator="arithmetic" k2="-1" k3="1"/>
<feColorMatrix type="matrix" values="0 0 0 0 0 0 0 0 0 0 0 0 0 0 0 0 0 0 0.1 0"/>
<feBlend mode="normal" in2="shape" result="effect1_innerShadow"/>
</filter>
<filter id="filter1_i" filterUnits="userSpaceOnUse" x="2021" y="3939" width="106" height="105" color-interpolation-filters="sRGB">
<feFlood flood-opacity="0" result="BackgroundImageFix"/>
<feBlend mode="normal" in="SourceGraphic" in2="BackgroundImageFix" result="shape"/>
<feColorMatrix in="SourceAlpha" type="matrix" values="0 0 0 0 0 0 0 0 0 0 0 0 0 0 0 0 0 0 255 0" result="hardAlpha"/>
<feOffset dx="0" dy="0"/>
<feComposite in2="hardAlpha" operator="arithmetic" k2="-1" k3="1"/>
<feColorMatrix type="matrix" values="0 0 0 0 0 0 0 0 0 0 0 0 0 0 0 0 0 0 0.1 0"/>
<feBlend mode="normal" in2="shape" result="effect1_innerShadow"/>
</filter>
<radialGradient id="paint1_radial" cx="0.5" cy="0.5" r="0.5" gradientUnits="userSpaceOnUse" gradientTransform="matrix(0 170 -170 0 170 0)">
<stop offset="0" stop-color="#979797"/>
<stop offset="1" stop-color="#979797" stop-opacity="0.444322"/>
</radialGradient>
<path id="path0_fill" fill-rule="evenodd" d="M 128 256C 198.692 256 256 198.692 256 128C 219.728 128 128 128 128 128C 128 128 128 128 196.24 19.6876C 176.487 7.21681 153.086 0 128 0C 57.3075 0 0 57.3075 0 128C 0 198.692 57.3075 256 128 256Z"/>
<path id="path1_stroke" d="M 85 133.9L 85.3646 133.558L 85 133.17L 84.6354 133.558L 85 133.9ZM 55.9283 164.874L 55.4291 164.902L 55.4939 166.067L 56.2929 165.216L 55.9283 164.874ZM 53.5675 122.46L 54.0667 122.432L 54.0371 121.9L 53.5081 121.963L 53.5675 122.46ZM 11.3878 127.5L 10.9875 127.2L 10.288 128.135L 11.4472 127.996L 11.3878 127.5ZM 36.8426 93.4915L 37.2429 93.7911L 37.5621 93.3646L 37.1162 93.073L 36.8426 93.4915ZM 1.29134 70.2399L 1.17729 69.7531L 0.0406809 70.0194L 1.01766 70.6584L 1.29134 70.2399ZM 42.6511 60.5498L 42.7651 61.0366L 43.2838 60.9151L 43.1297 60.4052L 42.6511 60.5498ZM 30.3631 19.8862L 30.5886 19.44L 29.5467 18.9134L 29.8844 20.0309L 30.3631 19.8862ZM 68.2751 39.0487L 68.0496 39.4949L 68.525 39.7353L 68.7347 39.2456L 68.2751 39.0487ZM 85 0L 85.4596 -0.196858L 85 -1.26995L 84.5404 -0.196858L 85 0ZM 101.725 39.0487L 101.265 39.2456L 101.475 39.7353L 101.95 39.4949L 101.725 39.0487ZM 139.637 19.8862L 140.116 20.0309L 140.453 18.9134L 139.411 19.44L 139.637 19.8862ZM 127.349 60.5498L 126.87 60.4052L 126.716 60.9151L 127.235 61.0366L 127.349 60.5498ZM 168.709 70.2399L 168.982 70.6584L 169.959 70.0194L 168.823 69.7531L 168.709 70.2399ZM 133.157 93.4915L 132.884 93.073L 132.438 93.3646L 132.757 93.7911L 133.157 93.4915ZM 158.612 127.5L 158.553 127.996L 159.712 128.135L 159.012 127.2L 158.612 127.5ZM 116.433 122.46L 116.492 121.963L 115.963 121.9L 115.933 122.432L 116.433 122.46ZM 114.072 164.874L 113.707 165.216L 114.506 166.067L 114.571 164.902L 114.072 164.874ZM 84.6354 133.558L 55.5637 164.532L 56.2929 165.216L 85.3646 134.243L 84.6354 133.558ZM 56.4275 164.846L 54.0667 122.432L 53.0682 122.488L 55.4291 164.902L 56.4275 164.846ZM 53.5081 121.963L 11.3285 127.004L 11.4472 127.996L 53.6268 122.956L 53.5081 121.963ZM 11.7881 127.8L 37.2429 93.7911L 36.4423 93.1918L 10.9875 127.2L 11.7881 127.8ZM 37.1162 93.073L 1.56502 69.8215L 1.01766 70.6584L 36.5689 93.9099L 37.1162 93.073ZM 1.4054 70.7267L 42.7651 61.0366L 42.537 60.063L 1.17729 69.7531L 1.4054 70.7267ZM 43.1297 60.4052L 30.8417 19.7416L 29.8844 20.0309L 42.1724 60.6945L 43.1297 60.4052ZM 30.1375 20.3325L 68.0496 39.4949L 68.5006 38.6025L 30.5886 19.44L 30.1375 20.3325ZM 68.7347 39.2456L 85.4596 0.196858L 84.5404 -0.196858L 67.8155 38.8519L 68.7347 39.2456ZM 84.5404 0.196858L 101.265 39.2456L 102.185 38.8519L 85.4596 -0.196858L 84.5404 0.196858ZM 101.95 39.4949L 139.863 20.3325L 139.411 19.44L 101.499 38.6025L 101.95 39.4949ZM 139.158 19.7416L 126.87 60.4052L 127.828 60.6945L 140.116 20.0309L 139.158 19.7416ZM 127.235 61.0366L 168.595 70.7267L 168.823 69.7531L 127.463 60.063L 127.235 61.0366ZM 168.435 69.8215L 132.884 93.073L 133.431 93.9099L 168.982 70.6584L 168.435 69.8215ZM 132.757 93.7911L 158.212 127.8L 159.012 127.2L 133.558 93.1918L 132.757 93.7911ZM 158.671 127.004L 116.492 121.963L 116.373 122.956L 158.553 127.996L 158.671 127.004ZM 115.933 122.432L 113.572 164.846L 114.571 164.902L 116.932 122.488L 115.933 122.432ZM 114.436 164.532L 85.3646 133.558L 84.6354 134.243L 113.707 165.216L 114.436 164.532Z"/>
<path id="path2_stroke" d="M 66 132.5C 102.727 132.5 132.5 102.727 132.5 66L 131.5 66C 131.5 102.175 102.175 131.5 66 131.5L 66 132.5ZM 132.5 66C 132.5 29.2731 102.727 -0.5 66 -0.5L 66 0.5C 102.175 0.5 131.5 29.8253 131.5 66L 132.5 66ZM 66 -0.5C 29.2731 -0.5 -0.5 29.2731 -0.5 66L 0.5 66C 0.5 29.8253 29.8253 0.5 66 0.5L 66 -0.5ZM -0.5 66C -0.5 102.727 29.2731 132.5 66 132.5L 66 131.5C 29.8253 131.5 0.5 102.175 0.5 66L -0.5 66Z"/>
<path id="path3_stroke" d="M 54.9421 110.384C 85.5619 110.384 110.384 85.5619 110.384 54.9421L 109.384 54.9421C 109.384 85.0096 85.0096 109.384 54.9421 109.384L 54.9421 110.384ZM 110.384 54.9421C 110.384 24.3223 85.5619 -0.5 54.9421 -0.5L 54.9421 0.5C 85.0096 0.5 109.384 24.8745 109.384 54.9421L 110.384 54.9421ZM 54.9421 -0.5C 24.3223 -0.5 -0.5 24.3223 -0.5 54.9421L 0.5 54.9421C 0.5 24.8745 24.8745 0.5 54.9421 0.5L 54.9421 -0.5ZM -0.5 54.9421C -0.5 85.5619 24.3223 110.384 54.9421 110.384L 54.9421 109.384C 24.8745 109.384 0.5 85.0096 0.5 54.9421L -0.5 54.9421Z"/>
<path id="path4_stroke" d="M 51.386 130.393L 51.2763 130.881L 51.555 130.944L 51.7506 130.735L 51.386 130.393ZM 60.5046 120.678L 60.5534 120.18L 60.3085 120.156L 60.1401 120.336L 60.5046 120.678ZM 35.6754 124.674L 35.1762 124.702L 35.1921 124.987L 35.4459 125.119L 35.6754 124.674ZM 34.9351 111.373L 35.4343 111.345L 35.4206 111.099L 35.2174 110.96L 34.9351 111.373ZM 26.6317 104.399L 26.9893 104.05L 26.8171 103.873L 26.5724 103.903L 26.6317 104.399ZM 13.4094 105.979L 13.0118 106.282L 13.185 106.51L 13.4688 106.476L 13.4094 105.979ZM 5.03564 91.5046L 4.63535 91.205L 4.46389 91.4341L 4.57455 91.698L 5.03564 91.5046ZM 13.014 80.8452L 13.4143 81.1448L 13.5619 80.9476L 13.4955 80.7104L 13.014 80.8452ZM 11.1398 70.1553L 11.6384 70.118L 11.62 69.8719L 11.4134 69.7368L 11.1398 70.1553ZM 0 62.8696L -0.499456 62.8463L -0.51278 63.1317L -0.273676 63.2881L 0 62.8696ZM 2.88696 46.3975L 2.77291 45.9106L 2.49434 45.9759L 2.40947 46.2491L 2.88696 46.3975ZM 15.8516 43.3601L 15.9656 43.8469L 16.2054 43.7907L 16.307 43.5664L 15.8516 43.3601ZM 21.286 33.9646L 21.692 34.2565L 21.836 34.0561L 21.7646 33.82L 21.286 33.9646ZM 17.4366 21.2261L 17.0694 20.8868L 16.8753 21.0969L 16.958 21.3707L 17.4366 21.2261ZM 30.2456 10.4673L 30.4712 10.021L 30.2156 9.8919L 29.9749 10.0469L 30.2456 10.4673ZM 42.1205 16.4695L 41.8949 16.9157L 42.1151 17.027L 42.3374 16.92L 42.1205 16.4695ZM 52.3267 12.7542L 52.45 13.2387L 52.6891 13.1778L 52.7863 12.951L 52.3267 12.7542ZM 57.5646 0.524658L 57.5019 0.0286055L 57.2177 0.0645233L 57.105 0.327803L 57.5646 0.524658ZM 74.2897 0.524658L 74.7493 0.327799L 74.6365 0.0645229L 74.3524 0.0286055L 74.2897 0.524658ZM 79.5277 12.7542L 79.0681 12.951L 79.1652 13.1778L 79.4043 13.2387L 79.5277 12.7542ZM 89.7336 16.4695L 89.5167 16.92L 89.739 17.027L 89.9592 16.9157L 89.7336 16.4695ZM 101.609 10.4673L 101.879 10.0469L 101.639 9.8919L 101.383 10.021L 101.609 10.4673ZM 114.418 21.2261L 114.896 21.3707L 114.979 21.0969L 114.785 20.8868L 114.418 21.2261ZM 110.568 33.9646L 110.089 33.82L 110.018 34.0561L 110.162 34.2565L 110.568 33.9646ZM 116.002 43.3601L 115.547 43.5664L 115.649 43.7907L 115.888 43.8469L 116.002 43.3601ZM 128.967 46.3975L 129.445 46.2491L 129.36 45.9759L 129.081 45.9106L 128.967 46.3975ZM 131.854 62.8696L 132.128 63.2881L 132.367 63.1317L 132.354 62.8463L 131.854 62.8696ZM 120.714 70.1555L 120.441 69.7371L 120.234 69.8721L 120.216 70.1182L 120.714 70.1555ZM 118.84 80.845L 118.359 80.7102L 118.292 80.9474L 118.44 81.1446L 118.84 80.845ZM 126.819 91.5046L 127.28 91.698L 127.39 91.4341L 127.219 91.205L 126.819 91.5046ZM 118.445 105.979L 118.385 106.476L 118.669 106.51L 118.842 106.282L 118.445 105.979ZM 105.222 104.399L 105.282 103.903L 105.037 103.873L 104.865 104.05L 105.222 104.399ZM 96.9192 111.373L 96.6368 110.96L 96.4336 111.099L 96.42 111.345L 96.9192 111.373ZM 96.1788 124.674L 96.4083 125.119L 96.6622 124.987L 96.6781 124.702L 96.1788 124.674ZM 80.4683 130.393L 80.1037 130.735L 80.2992 130.944L 80.5779 130.881L 80.4683 130.393ZM 71.3496 120.678L 71.7142 120.336L 71.5458 120.156L 71.3008 120.18L 71.3496 120.678ZM 51.7506 130.735L 60.8692 121.02L 60.1401 120.336L 51.0214 130.051L 51.7506 130.735ZM 35.4459 125.119C 40.3837 127.669 45.7128 129.629 51.2763 130.881L 51.4957 129.905C 45.9957 128.67 40.7867 126.753 35.9049 124.23L 35.4459 125.119ZM 34.4358 111.401L 35.1762 124.702L 36.1746 124.647L 35.4343 111.345L 34.4358 111.401ZM 26.2741 104.749C 28.8195 107.352 31.6384 109.722 34.6527 111.785L 35.2174 110.96C 32.2432 108.926 29.4996 106.619 26.9893 104.05L 26.2741 104.749ZM 13.4688 106.476L 26.691 104.896L 26.5724 103.903L 13.3501 105.483L 13.4688 106.476ZM 4.57455 91.698C 6.76699 96.9235 9.62369 101.837 13.0118 106.282L 13.807 105.676C 10.4552 101.281 7.66221 96.4779 5.49674 91.3113L 4.57455 91.698ZM 12.6137 80.5456L 4.63535 91.205L 5.43594 91.8043L 13.4143 81.1448L 12.6137 80.5456ZM 10.6412 70.1926C 10.9186 73.8939 11.5638 77.5179 12.5326 80.98L 13.4955 80.7104C 12.5387 77.2951 11.9107 73.7687 11.6384 70.118L 10.6412 70.1926ZM -0.273676 63.2881L 10.8661 70.5737L 11.4134 69.7368L 0.273676 62.4512L -0.273676 63.2881ZM 2.40947 46.2491C 0.773307 51.5198 -0.230251 57.1032 -0.499456 62.8463L 0.499456 62.8929C 0.763454 57.2152 1.74476 51.757 3.36446 46.5458L 2.40947 46.2491ZM 15.7375 42.8733L 2.77291 45.9106L 3.00101 46.8843L 15.9656 43.8469L 15.7375 42.8733ZM 20.88 33.6727C 18.7604 36.6221 16.9109 39.8099 15.3961 43.1539L 16.307 43.5664C 17.8 40.2677 19.5999 37.1655 21.692 34.2565L 20.88 33.6727ZM 16.958 21.3707L 20.8074 34.1092L 21.7646 33.82L 17.9153 21.0814L 16.958 21.3707ZM 29.9749 10.0469C 25.2333 13.1011 20.8812 16.7621 17.0694 20.8868L 17.8039 21.5654C 21.5717 17.4854 25.827 13.9057 30.5163 10.8877L 29.9749 10.0469ZM 42.346 16.0232L 30.4712 10.021L 30.0201 10.9135L 41.8949 16.9157L 42.346 16.0232ZM 52.2033 12.2696C 48.6257 13.1813 45.1641 14.4496 41.9036 16.019L 42.3374 16.92C 45.5535 15.3707 48.9215 14.1366 52.45 13.2387L 52.2033 12.2696ZM 57.105 0.327803L 51.867 12.5573L 52.7863 12.951L 58.0242 0.721513L 57.105 0.327803ZM 65.9271 -0.5C 63.0784 -0.499745 60.256 -0.319288 57.5019 0.0286055L 57.6273 1.02071C 60.3507 0.676222 63.1103 0.499745 65.9271 0.5L 65.9271 -0.5ZM 74.3524 0.0286055C 71.5982 -0.319288 68.7758 -0.499745 65.9271 -0.5L 65.9271 0.5C 68.7439 0.499745 71.5036 0.676222 74.227 1.02071L 74.3524 0.0286055ZM 79.9873 12.5573L 74.7493 0.327799L 73.8301 0.721517L 79.0681 12.951L 79.9873 12.5573ZM 89.9506 16.019C 86.6901 14.4496 83.2286 13.1813 79.6511 12.2696L 79.4043 13.2387C 82.9328 14.1366 86.3007 15.3707 89.5167 16.92L 89.9506 16.019ZM 101.383 10.021L 89.5081 16.0232L 89.9592 16.9157L 101.834 10.9135L 101.383 10.021ZM 114.785 20.8868C 110.973 16.7621 106.621 13.1011 101.879 10.0469L 101.338 10.8877C 106.027 13.9057 110.283 17.4854 114.05 21.5654L 114.785 20.8868ZM 111.047 34.1092L 114.896 21.3707L 113.939 21.0814L 110.089 33.82L 111.047 34.1092ZM 116.458 43.1539C 114.943 39.8102 113.094 36.6221 110.974 33.6727L 110.162 34.2565C 112.254 37.1655 114.054 40.2679 115.547 43.5664L 116.458 43.1539ZM 129.081 45.9106L 116.116 42.8733L 115.888 43.8469L 128.853 46.8843L 129.081 45.9106ZM 132.354 62.8463C 132.085 57.1032 131.081 51.5198 129.445 46.2491L 128.49 46.5458C 130.109 51.757 131.091 57.2152 131.355 62.8929L 132.354 62.8463ZM 120.988 70.574L 132.128 63.2881L 131.581 62.4512L 120.441 69.7371L 120.988 70.574ZM 119.322 80.9798C 120.29 77.5176 120.936 73.8939 121.213 70.1928L 120.216 70.1182C 119.943 73.7687 119.315 77.2949 118.359 80.7102L 119.322 80.9798ZM 127.219 91.205L 119.24 80.5454L 118.44 81.1446L 126.418 91.8042L 127.219 91.205ZM 118.842 106.282C 122.231 101.837 125.087 96.9235 127.28 91.698L 126.358 91.3113C 124.192 96.4779 121.399 101.281 118.047 105.676L 118.842 106.282ZM 105.163 104.896L 118.385 106.476L 118.504 105.483L 105.282 103.903L 105.163 104.896ZM 97.2016 111.785C 100.216 109.722 103.035 107.352 105.58 104.749L 104.865 104.05C 102.355 106.619 99.611 108.926 96.6368 110.96L 97.2016 111.785ZM 96.6781 124.702L 97.4184 111.401L 96.42 111.345L 95.6796 124.647L 96.6781 124.702ZM 80.5779 130.881C 86.1415 129.629 91.4705 127.669 96.4083 125.119L 95.9493 124.23C 91.0676 126.753 85.8585 128.67 80.3586 129.905L 80.5779 130.881ZM 70.985 121.02L 80.1037 130.735L 80.8328 130.051L 71.7142 120.336L 70.985 121.02ZM 65.927 121.442C 67.7692 121.442 69.6024 121.351 71.3984 121.175L 71.3008 120.18C 69.5289 120.354 67.7445 120.442 65.927 120.442L 65.927 121.442ZM 60.4559 121.175C 62.2517 121.351 64.085 121.442 65.927 121.442L 65.927 120.442C 64.1096 120.442 62.3252 120.354 60.5534 120.18L 60.4559 121.175Z"/>
<path id="path5_fill" fill-rule="evenodd" d="M 25.2355 50.471C 39.1727 50.471 50.471 39.1727 50.471 25.2355C 50.471 11.2983 39.1727 0 25.2355 0C 11.2983 0 0 11.2983 0 25.2355C 0 39.1727 11.2983 50.471 25.2355 50.471Z"/>
<path id="path6_stroke_2x" d="M 25.2355 53.471C 40.8296 53.471 53.471 40.8296 53.471 25.2355L 47.471 25.2355C 47.471 37.5159 37.5159 47.471 25.2355 47.471L 25.2355 53.471ZM 53.471 25.2355C 53.471 9.64147 40.8296 -3 25.2355 -3L 25.2355 3C 37.5159 3 47.471 12.9552 47.471 25.2355L 53.471 25.2355ZM 25.2355 -3C 9.64147 -3 -3 9.64147 -3 25.2355L 3 25.2355C 3 12.9552 12.9552 3 25.2355 3L 25.2355 -3ZM -3 25.2355C -3 40.8296 9.64147 53.471 25.2355 53.471L 25.2355 47.471C 12.9552 47.471 3 37.5159 3 25.2355L -3 25.2355Z"/>
<path id="path7_stroke" d="M 46.1583 4.12716C 41.4924 1.21216 35.9111 -0.494499 30 -0.5L 30 0.5C 35.7631 0.494499 41.0773 2.12192 45.6278 4.97484L 46.1583 4.12716ZM 30 -0.5C 13.1553 -0.5 -0.5 13.1553 -0.5 30L 0.5 30C 0.5 13.7076 13.7076 0.5 30 0.5L 30 -0.5ZM -0.5 30C -0.5 46.8447 13.1553 60.5 30 60.5L 30 59.5C 13.7076 59.5 0.5 46.2924 0.5 30L -0.5 30ZM 30 60.5C 46.8447 60.5 60.5 46.8447 60.5 30L 59.5 30C 59.5 46.2924 46.2924 59.5 30 59.5L 30 60.5Z"/>
<path id="path8_stroke" d="M 14.5279 25.3993C 14.5279 14.5225 8.83394 4.97583 0.266568 -0.423014L -0.266568 0.423014C 8.02245 5.64646 13.5279 14.8802 13.5279 25.3993L 14.5279 25.3993Z"/>
<path id="path9_stroke" d="M 40.4857 102.523L 40.3762 103.011L 40.6545 103.073L 40.8499 102.865L 40.4857 102.523ZM 47.67 94.884L 47.7187 94.3864L 47.4742 94.3625L 47.3058 94.5415L 47.67 94.884ZM 28.108 98.0264L 27.6088 98.0542L 27.6247 98.3397L 27.8789 98.4708L 28.108 98.0264ZM 27.5248 87.5679L 28.024 87.54L 28.0103 87.294L 27.8068 87.155L 27.5248 87.5679ZM 20.9827 82.085L 21.3399 81.7351L 21.1678 81.5593L 20.9235 81.5885L 20.9827 82.085ZM 10.5648 83.3271L 10.1675 83.6307L 10.3407 83.8574L 10.624 83.8236L 10.5648 83.3271ZM 3.96741 71.9465L 3.56741 71.6465L 3.39537 71.8759L 3.50645 72.1402L 3.96741 71.9465ZM 10.2535 63.5652L 10.6535 63.8652L 10.8016 63.6678L 10.735 63.4301L 10.2535 63.5652ZM 8.77686 55.1602L 9.27546 55.1228L 9.257 54.8765L 9.05014 54.7414L 8.77686 55.1602ZM 0 49.4316L -0.499454 49.4083L -0.512824 49.694L -0.273284 49.8503L 0 49.4316ZM 2.27441 36.4805L 2.16059 35.9936L 1.88203 36.0587L 1.79701 36.3319L 2.27441 36.4805ZM 12.4893 34.0923L 12.6031 34.5792L 12.8428 34.5231L 12.9446 34.2989L 12.4893 34.0923ZM 16.7709 26.7051L 17.1766 26.9973L 17.3211 26.7967L 17.2494 26.5602L 16.7709 26.7051ZM 13.7379 16.6892L 13.371 16.3496L 13.1763 16.5599L 13.2594 16.8341L 13.7379 16.6892ZM 23.83 8.22998L 24.0551 7.78355L 23.8 7.65489L 23.5597 7.80933L 23.83 8.22998ZM 33.1862 12.9492L 32.961 13.3956L 33.1808 13.5065L 33.4027 13.3999L 33.1862 12.9492ZM 41.2269 10.0281L 41.3501 10.5127L 41.5891 10.4519L 41.6864 10.2253L 41.2269 10.0281ZM 45.3539 0.412598L 45.2913 -0.0834702L 45.0073 -0.0476421L 44.8944 0.215394L 45.3539 0.412598ZM 58.5314 0.412598L 58.9908 0.215394L 58.8779 -0.0476464L 58.5939 -0.083471L 58.5314 0.412598ZM 62.6583 10.0281L 62.1989 10.2253L 62.2961 10.4519L 62.5352 10.5127L 62.6583 10.0281ZM 70.6991 12.9492L 70.4825 13.3999L 70.7044 13.5065L 70.9243 13.3956L 70.6991 12.9492ZM 80.0551 8.22998L 80.3253 7.80933L 80.085 7.65489L 79.8299 7.78356L 80.0551 8.22998ZM 90.1473 16.6892L 90.6259 16.8341L 90.7089 16.5599L 90.5143 16.3496L 90.1473 16.6892ZM 87.1144 26.7051L 86.6358 26.5602L 86.5642 26.7968L 86.7087 26.9973L 87.1144 26.7051ZM 91.3961 34.0923L 90.9408 34.2989L 91.0425 34.5231L 91.2823 34.5792L 91.3961 34.0923ZM 101.61 36.4805L 102.088 36.3319L 102.003 36.0587L 101.724 35.9936L 101.61 36.4805ZM 103.885 49.4319L 104.158 49.8506L 104.398 49.6943L 104.385 49.4085L 103.885 49.4319ZM 95.1083 55.1604L 94.835 54.7417L 94.6281 54.8767L 94.6097 55.123L 95.1083 55.1604ZM 93.6317 63.5652L 93.1503 63.4301L 93.0836 63.6678L 93.2317 63.8652L 93.6317 63.5652ZM 99.9176 71.9463L 100.379 72.14L 100.49 71.8757L 100.318 71.6463L 99.9176 71.9463ZM 93.3202 83.3271L 93.261 83.8236L 93.5443 83.8574L 93.7175 83.6307L 93.3202 83.3271ZM 82.9025 82.085L 82.9617 81.5885L 82.7174 81.5593L 82.5452 81.7351L 82.9025 82.085ZM 76.3605 87.5679L 76.0785 87.155L 75.875 87.294L 75.8613 87.54L 76.3605 87.5679ZM 75.7772 98.0264L 76.0064 98.4708L 76.2605 98.3397L 76.2764 98.0542L 75.7772 98.0264ZM 63.3993 102.523L 63.0351 102.865L 63.2305 103.073L 63.5088 103.011L 63.3993 102.523ZM 56.215 94.884L 56.5792 94.5415L 56.4108 94.3625L 56.1663 94.3864L 56.215 94.884ZM 40.8499 102.865L 48.0343 95.2266L 47.3058 94.5415L 40.1215 102.18L 40.8499 102.865ZM 27.8789 98.4708C 31.7751 100.479 35.9864 102.024 40.3762 103.011L 40.5952 102.035C 36.2688 101.065 32.1773 99.563 28.3372 97.582L 27.8789 98.4708ZM 27.0256 87.5957L 27.6088 98.0542L 28.6073 97.9985L 28.024 87.54L 27.0256 87.5957ZM 20.6254 82.4348C 22.6347 84.4856 24.8636 86.355 27.2428 87.9808L 27.8068 87.155C 25.4677 85.5581 23.314 83.7517 21.3399 81.7351L 20.6254 82.4348ZM 10.624 83.8236L 21.0419 82.5814L 20.9235 81.5885L 10.5056 82.8307L 10.624 83.8236ZM 3.50645 72.1402C 5.23677 76.2552 7.49419 80.13 10.1675 83.6307L 10.9621 83.0236C 8.32515 79.5736 6.13163 75.8088 4.42836 71.7528L 3.50645 72.1402ZM 9.85354 63.2652L 3.56741 71.6465L 4.3674 72.2465L 10.6535 63.8652L 9.85354 63.2652ZM 8.27825 55.1975C 8.49735 58.113 9.0076 60.9729 9.77213 63.7002L 10.735 63.4301C 9.98239 60.7498 9.48946 57.9876 9.27546 55.1228L 8.27825 55.1975ZM -0.273284 49.8503L 8.50357 55.5789L 9.05014 54.7414L 0.273284 49.0129L -0.273284 49.8503ZM 1.79701 36.3319C 0.506149 40.4822 -0.286758 44.8858 -0.499454 49.4083L 0.499454 49.455C 0.706924 44.998 1.47749 40.7199 2.75182 36.6291L 1.79701 36.3319ZM 12.3754 33.6054L 2.16059 35.9936L 2.38824 36.9673L 12.6031 34.5792L 12.3754 33.6054ZM 16.3652 26.4128C 14.6923 28.7362 13.2298 31.2517 12.0339 33.8857L 12.9446 34.2989C 14.1185 31.7102 15.5313 29.2804 17.1766 26.9973L 16.3652 26.4128ZM 13.2594 16.8341L 16.2923 26.85L 17.2494 26.5602L 14.2165 16.5443L 13.2594 16.8341ZM 23.5597 7.80933C 19.8181 10.2146 16.3789 13.1016 13.371 16.3496L 14.1048 17.0289C 17.0686 13.8256 20.4111 11.0198 24.1002 8.65063L 23.5597 7.80933ZM 33.4113 12.5028L 24.0551 7.78355L 23.6048 8.67641L 32.961 13.3956L 33.4113 12.5028ZM 41.1038 9.54348C 38.28 10.2618 35.5431 11.2625 32.9696 12.4986L 33.4027 13.3999C 35.9318 12.1838 38.5752 11.2172 41.3501 10.5127L 41.1038 9.54348ZM 44.8944 0.215394L 40.7675 9.83087L 41.6864 10.2253L 45.8134 0.609801L 44.8944 0.215394ZM 51.9425 -0.5C 49.6946 -0.499746 47.4644 -0.357382 45.2913 -0.0834702L 45.4165 0.908665C 47.5588 0.638144 49.7265 0.499746 51.9425 0.5L 51.9425 -0.5ZM 58.5939 -0.083471C 56.4207 -0.357383 54.1904 -0.499746 51.9425 -0.5L 51.9425 0.5C 54.1585 0.499746 56.3262 0.638144 58.4688 0.908666L 58.5939 -0.083471ZM 63.1178 9.83087L 58.9908 0.215394L 58.0719 0.609801L 62.1989 10.2253L 63.1178 9.83087ZM 70.9157 12.4986C 68.3422 11.2625 65.6053 10.2618 62.7815 9.54348L 62.5352 10.5127C 65.31 11.2172 67.9535 12.1838 70.4825 13.3999L 70.9157 12.4986ZM 79.8299 7.78356L 70.4739 12.5028L 70.9243 13.3956L 80.2802 8.6764L 79.8299 7.78356ZM 90.5143 16.3496C 87.5064 13.1016 84.0669 10.2146 80.3253 7.80933L 79.7848 8.65063C 83.4739 11.0198 86.8166 13.8256 89.7804 17.0289L 90.5143 16.3496ZM 87.5929 26.85L 90.6259 16.8341L 89.6688 16.5443L 86.6358 26.5602L 87.5929 26.85ZM 91.8514 33.8857C 90.6556 31.2517 89.193 28.7362 87.5201 26.4128L 86.7087 26.9973C 88.3541 29.2804 89.767 31.7102 90.9408 34.2989L 91.8514 33.8857ZM 101.724 35.9936L 91.5099 33.6054L 91.2823 34.5792L 101.497 36.9673L 101.724 35.9936ZM 104.385 49.4085C 104.172 44.8858 103.379 40.4825 102.088 36.3319L 101.133 36.6291C 102.408 40.7202 103.178 44.998 103.386 49.4552L 104.385 49.4085ZM 95.3816 55.5791L 104.158 49.8506L 103.612 49.0132L 94.835 54.7417L 95.3816 55.5791ZM 94.1131 63.7002C 94.8777 60.9729 95.3878 58.1132 95.6069 55.1978L 94.6097 55.123C 94.3957 57.9879 93.9029 60.7498 93.1503 63.4301L 94.1131 63.7002ZM 100.318 71.6463L 94.0317 63.2652L 93.2317 63.8652L 99.5176 72.2463L 100.318 71.6463ZM 93.7175 83.6307C 96.3909 80.13 98.6482 76.2549 100.379 72.14L 99.4566 71.7526C 97.7534 75.8086 95.56 79.5736 92.9229 83.0236L 93.7175 83.6307ZM 82.8433 82.5814L 93.261 83.8236L 93.3794 82.8307L 82.9617 81.5885L 82.8433 82.5814ZM 76.6424 87.9808C 79.0216 86.3553 81.2505 84.4855 83.2597 82.4348L 82.5452 81.7351C 80.5711 83.7518 78.4176 85.5583 76.0785 87.155L 76.6424 87.9808ZM 76.2764 98.0542L 76.8597 87.5957L 75.8613 87.54L 75.278 97.9985L 76.2764 98.0542ZM 63.5088 103.011C 67.8989 102.024 72.1102 100.479 76.0064 98.4708L 75.5481 97.582C 71.708 99.563 67.6165 101.065 63.2898 102.035L 63.5088 103.011ZM 55.8507 95.2266L 63.0351 102.865L 63.7635 102.18L 56.5792 94.5415L 55.8507 95.2266ZM 51.9425 95.5918C 53.3965 95.5916 54.8461 95.5201 56.2636 95.3817L 56.1663 94.3864C 54.7728 94.5228 53.3718 94.5919 51.9425 94.5918L 51.9425 95.5918ZM 47.6214 95.3817C 49.0389 95.5201 50.4885 95.5916 51.9425 95.5918L 51.9425 94.5918C 50.5132 94.5919 49.1122 94.5228 47.7187 94.3864L 47.6214 95.3817Z"/>
<path id="path10_fill" fill-rule="evenodd" d="M 19.8825 39.6833C 30.8633 39.6833 39.7651 30.7999 39.7651 19.8417C 39.7651 8.88342 30.8633 0 19.8825 0C 8.90171 0 0 8.88342 0 19.8417C 0 30.7999 8.90171 39.6833 19.8825 39.6833Z"/>
<path id="path11_stroke_2x" d="M 19.8825 42.6833C 32.5144 42.6833 42.7651 32.4626 42.7651 19.8417L 36.7651 19.8417C 36.7651 29.1372 29.2123 36.6833 19.8825 36.6833L 19.8825 42.6833ZM 42.7651 19.8417C 42.7651 7.22075 32.5144 -3 19.8825 -3L 19.8825 3C 29.2123 3 36.7651 10.5461 36.7651 19.8417L 42.7651 19.8417ZM 19.8825 -3C 7.25068 -3 -3 7.22075 -3 19.8417L 3 19.8417C 3 10.5461 10.5527 3 19.8825 3L 19.8825 -3ZM -3 19.8417C -3 32.4626 7.25068 42.6833 19.8825 42.6833L 19.8825 36.6833C 10.5527 36.6833 3 29.1372 3 19.8417L -3 19.8417Z"/>
<path id="path12_stroke" d="M 27.4238 55.2348C 42.8447 55.2348 55.3475 42.7591 55.3475 27.3674L 54.3475 27.3674C 54.3475 42.2049 42.2943 54.2348 27.4238 54.2348L 27.4238 55.2348ZM 55.3475 27.3674C 55.3475 11.9757 42.8447 -0.5 27.4238 -0.5L 27.4238 0.5C 42.2943 0.5 54.3475 12.5299 54.3475 27.3674L 55.3475 27.3674ZM 27.4238 -0.5C 12.0029 -0.5 -0.5 11.9757 -0.5 27.3674L 0.5 27.3674C 0.5 12.5299 12.5532 0.5 27.4238 0.5L 27.4238 -0.5ZM -0.5 27.3674C -0.5 42.7591 12.0029 55.2348 27.4238 55.2348L 27.4238 54.2348C 12.5532 54.2348 0.5 42.2049 0.5 27.3674L -0.5 27.3674Z"/>
</defs>
</svg>
