<svg width="99" height="26" viewBox="0 0 99 26" version="1.1" xmlns="http://www.w3.org/2000/svg" xmlns:xlink="http://www.w3.org/1999/xlink">
<title>logo</title>
<desc>Created using Figma</desc>
<g id="Canvas" transform="translate(-5980 129)">
<g id="logo">
<g id="Oval 2">
<use xlink:href="#path0_fill" transform="matrix(-6.12323e-17 1 1 6.12323e-17 5980 -129)" fill="#EE0000"/>
</g>
<g id="Radian">
<use xlink:href="#path1_fill" transform="translate(6016 -129)"/>
</g>
</g>
</g>
<defs>
<path id="path0_fill" fill-rule="evenodd" d="M 13 26C 20.1797 26 26 20.1797 26 13C 22.3161 13 13 13 13 13C 13 13 13 13 19.9306 1.99952C 17.9245 0.732957 15.5478 0 13 0C 5.8203 0 0 5.8203 0 13C 0 20.1797 5.8203 26 13 26Z"/>
<path id="path1_fill" d="M 8.588 19L 5.681 13.661L 4.579 13.661L 4.579 19L 1.387 19L 1.387 5.548L 6.517 5.548C 7.163 5.548 7.79 5.61767 8.398 5.757C 9.01867 5.88367 9.56967 6.10533 10.051 6.422C 10.545 6.73867 10.9377 7.15667 11.229 7.676C 11.5203 8.19533 11.666 8.84133 11.666 9.614C 11.666 10.526 11.419 11.2923 10.925 11.913C 10.431 12.5337 9.747 12.977 8.873 13.243L 12.388 19L 8.588 19ZM 8.455 9.671C 8.455 9.35433 8.38533 9.101 8.246 8.911C 8.11933 8.70833 7.94833 8.55633 7.733 8.455C 7.53033 8.341 7.296 8.265 7.03 8.227C 6.77667 8.189 6.52967 8.17 6.289 8.17L 4.56 8.17L 4.56 11.305L 6.099 11.305C 6.365 11.305 6.63733 11.286 6.916 11.248C 7.19467 11.1973 7.448 11.115 7.676 11.001C 7.904 10.887 8.08767 10.7223 8.227 10.507C 8.379 10.2917 8.455 10.013 8.455 9.671ZM 19.178 14.877L 18.779 14.877C 18.437 14.877 18.0886 14.896 17.734 14.934C 17.392 14.9593 17.0816 15.0163 16.803 15.105C 16.537 15.1937 16.3153 15.3267 16.138 15.504C 15.9606 15.6687 15.872 15.8903 15.872 16.169C 15.872 16.3463 15.91 16.4983 15.986 16.625C 16.0746 16.7517 16.1823 16.853 16.309 16.929C 16.4356 17.005 16.5813 17.062 16.746 17.1C 16.9106 17.1253 17.069 17.138 17.221 17.138C 17.8543 17.138 18.3356 16.967 18.665 16.625C 19.007 16.2703 19.178 15.7953 19.178 15.2L 19.178 14.877ZM 13.459 10.83C 14.0163 10.298 14.6623 9.899 15.397 9.633C 16.1443 9.367 16.9043 9.234 17.677 9.234C 18.475 9.234 19.1463 9.33533 19.691 9.538C 20.2483 9.728 20.698 10.032 21.04 10.45C 21.382 10.8553 21.629 11.3747 21.781 12.008C 21.9456 12.6287 22.028 13.3697 22.028 14.231L 22.028 19L 19.178 19L 19.178 17.993L 19.121 17.993C 18.8803 18.3857 18.513 18.6897 18.019 18.905C 17.5376 19.1203 17.012 19.228 16.442 19.228C 16.062 19.228 15.6693 19.1773 15.264 19.076C 14.8586 18.9747 14.485 18.81 14.143 18.582C 13.8136 18.354 13.5413 18.05 13.326 17.67C 13.1106 17.29 13.003 16.8213 13.003 16.264C 13.003 15.58 13.1866 15.029 13.554 14.611C 13.934 14.193 14.4153 13.87 14.998 13.642C 15.5933 13.414 16.252 13.262 16.974 13.186C 17.696 13.11 18.399 13.072 19.083 13.072L 19.083 12.92C 19.083 12.4513 18.9183 12.1093 18.589 11.894C 18.2596 11.666 17.8543 11.552 17.373 11.552C 16.9296 11.552 16.499 11.647 16.081 11.837C 15.6756 12.027 15.3273 12.255 15.036 12.521L 13.459 10.83ZM 31.5167 19L 31.5167 17.765L 31.4787 17.765C 31.1747 18.2463 30.7377 18.62 30.1677 18.886C 29.6104 19.1393 29.015 19.266 28.3817 19.266C 27.6724 19.266 27.039 19.1267 26.4817 18.848C 25.9244 18.5693 25.4494 18.202 25.0567 17.746C 24.6767 17.2773 24.3854 16.739 24.1827 16.131C 23.98 15.523 23.8787 14.8897 23.8787 14.231C 23.8787 13.5723 23.98 12.9453 24.1827 12.35C 24.398 11.742 24.6957 11.21 25.0757 10.754C 25.4684 10.298 25.937 9.937 26.4817 9.671C 27.039 9.405 27.6597 9.272 28.3437 9.272C 29.0404 9.272 29.6294 9.405 30.1107 9.671C 30.592 9.937 30.9657 10.2283 31.2317 10.545L 31.2697 10.545L 31.2697 4.636L 34.3857 4.636L 34.3857 19L 31.5167 19ZM 31.4027 14.25C 31.4027 13.946 31.3457 13.6483 31.2317 13.357C 31.1304 13.0657 30.9784 12.806 30.7757 12.578C 30.5857 12.35 30.3514 12.1663 30.0727 12.027C 29.794 11.8877 29.4774 11.818 29.1227 11.818C 28.7554 11.818 28.4324 11.8877 28.1537 12.027C 27.875 12.1663 27.6407 12.35 27.4507 12.578C 27.2607 12.7933 27.115 13.0467 27.0137 13.338C 26.925 13.6293 26.8807 13.927 26.8807 14.231C 26.8807 14.535 26.925 14.839 27.0137 15.143C 27.115 15.4343 27.2607 15.694 27.4507 15.922C 27.6407 16.15 27.875 16.3337 28.1537 16.473C 28.4324 16.6123 28.7554 16.682 29.1227 16.682C 29.4774 16.682 29.794 16.6123 30.0727 16.473C 30.3514 16.3337 30.5857 16.15 30.7757 15.922C 30.9784 15.694 31.1304 15.4343 31.2317 15.143C 31.3457 14.8517 31.4027 14.554 31.4027 14.25ZM 40.2416 6.517C 40.2416 6.75767 40.1909 6.98567 40.0896 7.201C 40.0009 7.40367 39.8742 7.581 39.7096 7.733C 39.5576 7.885 39.3676 8.00533 39.1396 8.094C 38.9242 8.18267 38.6962 8.227 38.4556 8.227C 37.9489 8.227 37.5246 8.06233 37.1826 7.733C 36.8406 7.391 36.6696 6.98567 36.6696 6.517C 36.6696 6.289 36.7139 6.07367 36.8026 5.871C 36.8912 5.65567 37.0179 5.472 37.1826 5.32C 37.3472 5.168 37.5372 5.04767 37.7526 4.959C 37.9679 4.85767 38.2022 4.807 38.4556 4.807C 38.6962 4.807 38.9242 4.85133 39.1396 4.94C 39.3676 5.02867 39.5576 5.149 39.7096 5.301C 39.8742 5.453 40.0009 5.63667 40.0896 5.852C 40.1909 6.05467 40.2416 6.27633 40.2416 6.517ZM 36.8976 19L 36.8976 9.538L 40.0136 9.538L 40.0136 19L 36.8976 19ZM 48.0676 14.877L 47.6686 14.877C 47.3266 14.877 46.9783 14.896 46.6236 14.934C 46.2816 14.9593 45.9713 15.0163 45.6926 15.105C 45.4266 15.1937 45.205 15.3267 45.0276 15.504C 44.8503 15.6687 44.7616 15.8903 44.7616 16.169C 44.7616 16.3463 44.7996 16.4983 44.8756 16.625C 44.9643 16.7517 45.072 16.853 45.1986 16.929C 45.3253 17.005 45.471 17.062 45.6356 17.1C 45.8003 17.1253 45.9586 17.138 46.1106 17.138C 46.744 17.138 47.2253 16.967 47.5546 16.625C 47.8966 16.2703 48.0676 15.7953 48.0676 15.2L 48.0676 14.877ZM 42.3486 10.83C 42.906 10.298 43.552 9.899 44.2866 9.633C 45.034 9.367 45.794 9.234 46.5666 9.234C 47.3646 9.234 48.036 9.33533 48.5806 9.538C 49.138 9.728 49.5876 10.032 49.9296 10.45C 50.2716 10.8553 50.5186 11.3747 50.6706 12.008C 50.8353 12.6287 50.9176 13.3697 50.9176 14.231L 50.9176 19L 48.0676 19L 48.0676 17.993L 48.0106 17.993C 47.77 18.3857 47.4026 18.6897 46.9086 18.905C 46.4273 19.1203 45.9016 19.228 45.3316 19.228C 44.9516 19.228 44.559 19.1773 44.1536 19.076C 43.7483 18.9747 43.3746 18.81 43.0326 18.582C 42.7033 18.354 42.431 18.05 42.2156 17.67C 42.0003 17.29 41.8926 16.8213 41.8926 16.264C 41.8926 15.58 42.0763 15.029 42.4436 14.611C 42.8236 14.193 43.305 13.87 43.8876 13.642C 44.483 13.414 45.1416 13.262 45.8636 13.186C 46.5856 13.11 47.2886 13.072 47.9726 13.072L 47.9726 12.92C 47.9726 12.4513 47.808 12.1093 47.4786 11.894C 47.1493 11.666 46.744 11.552 46.2626 11.552C 45.8193 11.552 45.3886 11.647 44.9706 11.837C 44.5653 12.027 44.217 12.255 43.9256 12.521L 42.3486 10.83ZM 59.4563 19L 59.4563 13.832C 59.4563 13.566 59.431 13.3127 59.3803 13.072C 59.3423 12.8313 59.2727 12.6223 59.1713 12.445C 59.07 12.255 58.9243 12.1093 58.7343 12.008C 58.557 11.894 58.329 11.837 58.0503 11.837C 57.7717 11.837 57.5247 11.894 57.3093 12.008C 57.1067 12.1093 56.9357 12.255 56.7963 12.445C 56.657 12.635 56.5493 12.8567 56.4733 13.11C 56.41 13.3507 56.3783 13.604 56.3783 13.87L 56.3783 19L 53.2433 19L 53.2433 9.538L 56.2643 9.538L 56.2643 10.849L 56.3023 10.849C 56.4163 10.6463 56.562 10.45 56.7393 10.26C 56.9293 10.0573 57.1447 9.88633 57.3853 9.747C 57.6387 9.60767 57.911 9.49367 58.2023 9.405C 58.4937 9.31633 58.804 9.272 59.1333 9.272C 59.7667 9.272 60.305 9.386 60.7483 9.614C 61.1917 9.842 61.5463 10.1397 61.8123 10.507C 62.091 10.8617 62.2873 11.2733 62.4013 11.742C 62.528 12.2107 62.5913 12.6793 62.5913 13.148L 62.5913 19L 59.4563 19Z"/>
</defs>
</svg>
